<svg width="500" height="500" viewBox="0 0 500 500" fill="none" xmlns="http://www.w3.org/2000/svg">
<path d="M249.603 110.493C284.491 110.493 312.105 109.009 334.735 106.042C345.645 104.558 346.858 104.153 346.455 101.725C345.377 95.7901 327.328 49.3895 325.037 46.8238C321.13 42.5073 313.048 39 307.121 39C303.35 39 293.382 42.3719 276.275 49.2513L250.816 59.5036L225.088 49.2513C208.924 42.7767 197.61 39.0002 194.376 39C188.045 39 178.347 43.5857 175.518 48.0371C171.477 54.2422 153.966 103.074 155.448 103.883C160.837 106.985 210.81 110.493 249.603 110.493Z" fill="white"/>
<path d="M87.2884 156.626C110.458 176.59 288.937 183.335 378.783 167.822C400.874 163.91 416.903 157.435 415.96 152.714C414.883 147.049 401.951 141.653 380.265 138.011C368.815 135.987 367.063 136.123 358.981 138.146C317.897 148.398 204.613 149.477 152.887 139.9C132.009 136.123 131.201 136.122 119.751 138.011C92.0025 142.867 79.4757 150.017 87.2884 156.626Z" fill="white"/>
<path d="M187.91 250.512C213.908 252.535 237.346 232.301 237.615 207.346C237.75 202.355 237.211 197.768 236.403 196.959C235.729 196.285 229.533 195.475 222.933 195.205L210.675 194.801L212.292 199.657C217.006 213.011 204.479 227.58 189.661 226.231C174.44 224.747 165.954 210.449 172.151 196.555L174.71 190.485L162.856 187.112L150.867 183.874L148.174 191.024C137.936 218.407 157.737 248.084 187.91 250.512Z" fill="white"/>
<path d="M290.823 246.465C301.734 251.591 318.032 251.59 328.808 246.599C345.242 238.775 354.268 225.826 355.21 208.56C355.48 201.68 354.941 196.824 353.324 192.103C351.573 187.247 350.226 185.359 348.206 185.224C345.646 184.954 327.462 189.406 326.519 190.485C326.25 190.755 327.192 193.318 328.673 196.15C332.041 202.625 332.041 206.672 328.808 213.821C321.669 229.468 298.636 230.682 290.823 215.709C288.129 210.718 287.455 200.871 289.475 196.959C290.688 194.801 289.879 194.666 279.103 195.205C272.638 195.475 266.576 196.42 265.768 197.094C264.69 198.039 264.016 201.951 264.016 207.481C264.017 224.208 273.985 238.776 290.823 246.465Z" fill="white"/>
<path d="M250.547 292.598C250.951 292.598 255.126 285.179 259.975 276.007L268.597 259.414L259.975 249.163C255.128 243.5 250.819 238.779 250.412 238.775C249.739 238.641 236.269 254.693 233.979 258.336C233.036 259.954 248.93 292.597 250.547 292.598Z" fill="white"/>
<path d="M195.992 433.021C210.134 444.216 230.471 458.782 231.149 458.112C231.553 457.842 225.627 440.845 218.084 420.611C210.675 400.242 199.494 370.026 193.298 353.3C165.684 278.165 165.011 276.411 162.99 276.411C161.912 276.41 157.063 274.657 152.484 272.364C147.231 269.936 141.168 265.485 136.723 260.898L129.45 253.614L124.197 261.977C110.862 283.289 99.5473 302.308 99.9502 302.715C100.893 303.659 126.352 307.167 139.148 308.111C145.614 308.651 150.867 309.595 150.867 310.135C150.863 310.811 140.628 318.095 127.968 326.322C109.38 338.731 105.339 341.968 106.281 343.722C108.571 347.769 142.381 384.999 153.696 395.791C167.84 409.28 183.735 423.174 195.992 433.021Z" fill="white"/>
<path d="M275.736 455.683C311.028 431.403 355.21 391.07 385.653 355.323L397.237 341.834L376.493 328.345C365.043 320.926 354.671 314.181 353.324 313.371C348.879 310.539 353.19 309.19 374.068 306.897C385.248 305.683 396.293 304.334 398.584 303.929L402.491 303.12L387.539 278.3C379.325 264.68 372.322 253.486 371.913 253.614C371.509 253.749 368.007 257.121 364.101 261.033C357.5 267.912 343.087 276.41 338.103 276.411C336.621 276.411 333.657 283.156 328.135 298.264C310.623 347.23 285.165 417.104 273.58 448.804L269.405 460L275.736 455.683Z" fill="white"/>
<path d="M250.547 420.746C252.163 420.746 269.405 410.495 274.254 406.583L278.026 403.615L269.539 371.78L260.919 340.08L264.69 333.471C266.711 329.964 269.405 325.917 270.483 324.568C271.56 323.354 272.234 322.004 271.964 321.735C271.693 321.463 266.71 317.822 261.054 313.776L250.816 306.358L241.521 313.102C236.537 316.744 231.554 320.251 230.611 320.791C229.264 321.6 230.207 323.894 234.787 330.638L240.848 339.406L235.056 360.854C231.958 372.589 228.052 387.158 226.435 393.094L223.472 403.75L226.57 406.178C231.688 410.089 249.199 420.746 250.547 420.746Z" fill="white"/>
</svg>
